<?xml version="1.0" encoding="UTF-8"?>
<!DOCTYPE svg PUBLIC "-//W3C//DTD SVG 1.1//EN" "http://www.w3.org/Graphics/SVG/1.1/DTD/svg11.dtd">
<svg xmlns="http://www.w3.org/2000/svg" version="1.1" width="4085px" height="404px" style="shape-rendering:geometricPrecision; text-rendering:geometricPrecision; image-rendering:optimizeQuality; fill-rule:evenodd; clip-rule:evenodd" xmlns:xlink="http://www.w3.org/1999/xlink">
<g><path style="opacity:0.99" fill="#000000" d="M -0.5,-0.5 C 36.5,-0.5 73.5,-0.5 110.5,-0.5C 110.5,134.167 110.5,268.833 110.5,403.5C 73.5,403.5 36.5,403.5 -0.5,403.5C -0.5,268.833 -0.5,134.167 -0.5,-0.5 Z"/></g>
<g><path style="opacity:0.994" fill="#000000" d="M 411.5,-0.5 C 452.5,-0.5 493.5,-0.5 534.5,-0.5C 586.645,97.7914 639.312,195.791 692.5,293.5C 745.672,195.826 798.339,97.8261 850.5,-0.5C 887.5,-0.5 924.5,-0.5 961.5,-0.5C 961.5,134.167 961.5,268.833 961.5,403.5C 924.5,403.5 887.5,403.5 850.5,403.5C 850.667,336.166 850.5,268.833 850,201.5C 814.742,269.018 779.242,336.352 743.5,403.5C 705.833,403.5 668.167,403.5 630.5,403.5C 594.934,336.035 559.101,268.702 523,201.5C 522.5,268.833 522.333,336.166 522.5,403.5C 485.5,403.5 448.5,403.5 411.5,403.5C 411.5,268.833 411.5,134.167 411.5,-0.5 Z"/></g>
<g><path style="opacity:0.993" fill="#000000" d="M 1253.5,-0.5 C 1325.5,-0.5 1397.5,-0.5 1469.5,-0.5C 1507.48,0.326312 1542.15,11.493 1573.5,33C 1614.19,66.3181 1633.69,109.485 1632,162.5C 1626.39,235.764 1588.56,283.264 1518.5,305C 1507.66,307.901 1496.66,309.901 1485.5,311C 1445.18,312.398 1404.85,312.898 1364.5,312.5C 1364.5,342.833 1364.5,373.167 1364.5,403.5C 1327.5,403.5 1290.5,403.5 1253.5,403.5C 1253.5,268.833 1253.5,134.167 1253.5,-0.5 Z M 1364.5,92.5 C 1395.17,92.3334 1425.84,92.5 1456.5,93C 1494.97,96.3045 1515.31,117.138 1517.5,155.5C 1515.73,193.854 1495.73,215.021 1457.5,219C 1426.5,219.5 1395.5,219.667 1364.5,219.5C 1364.5,177.167 1364.5,134.833 1364.5,92.5 Z"/></g>
<g><path style="opacity:0.994" fill="#000000" d="M 1912.5,-0.5 C 2028.83,-0.5 2145.17,-0.5 2261.5,-0.5C 2261.5,30.5 2261.5,61.5 2261.5,92.5C 2182.17,92.5 2102.83,92.5 2023.5,92.5C 2023.5,116.5 2023.5,140.5 2023.5,164.5C 2087.5,164.5 2151.5,164.5 2215.5,164.5C 2215.5,189.167 2215.5,213.833 2215.5,238.5C 2151.5,238.5 2087.5,238.5 2023.5,238.5C 2023.5,262.833 2023.5,287.167 2023.5,311.5C 2102.83,311.5 2182.17,311.5 2261.5,311.5C 2261.5,342.167 2261.5,372.833 2261.5,403.5C 2145.17,403.5 2028.83,403.5 1912.5,403.5C 1912.5,268.833 1912.5,134.167 1912.5,-0.5 Z"/></g>
<g><path style="opacity:0.995" fill="#000000" d="M 2535.5,-0.5 C 2610.17,-0.5 2684.83,-0.5 2759.5,-0.5C 2815.79,1.88604 2859.63,26.2194 2891,72.5C 2919.06,123.992 2919.4,175.659 2892,227.5C 2877.57,251.594 2857.74,269.76 2832.5,282C 2863.79,322.111 2894.46,362.611 2924.5,403.5C 2880.83,403.5 2837.17,403.5 2793.5,403.5C 2771.05,369.881 2748.39,336.381 2725.5,303C 2699.17,302.5 2672.84,302.333 2646.5,302.5C 2646.5,336.167 2646.5,369.833 2646.5,403.5C 2609.5,403.5 2572.5,403.5 2535.5,403.5C 2535.5,268.833 2535.5,134.167 2535.5,-0.5 Z M 2646.5,92.5 C 2679.17,92.3334 2711.84,92.5 2744.5,93C 2769.96,96.7984 2787.46,110.632 2797,134.5C 2803.84,166.98 2792.34,190.48 2762.5,205C 2756.07,207.609 2749.4,209.275 2742.5,210C 2710.5,210.5 2678.5,210.667 2646.5,210.5C 2646.5,171.167 2646.5,131.833 2646.5,92.5 Z"/></g>
<g><path style="opacity:0.994" fill="#000000" d="M 3194.5,-0.5 C 3231.5,-0.5 3268.5,-0.5 3305.5,-0.5C 3305.5,134.167 3305.5,268.833 3305.5,403.5C 3268.5,403.5 3231.5,403.5 3194.5,403.5C 3194.5,268.833 3194.5,134.167 3194.5,-0.5 Z"/></g>
<g><path style="opacity:0.995" fill="#000000" d="M 3770.5,-0.5 C 3811.17,-0.5 3851.83,-0.5 3892.5,-0.5C 3955.99,133.812 4019.99,267.812 4084.5,401.5C 4084.5,402.167 4084.5,402.833 4084.5,403.5C 4046.5,403.5 4008.5,403.5 3970.5,403.5C 3961.52,382.042 3951.85,360.875 3941.5,340C 3868.5,339.333 3795.5,339.333 3722.5,340C 3712.21,361.046 3702.21,382.212 3692.5,403.5C 3654.83,403.5 3617.17,403.5 3579.5,403.5C 3643.17,268.833 3706.83,134.167 3770.5,-0.5 Z M 3831.5,108.5 C 3833.69,109.823 3835.19,111.823 3836,114.5C 3857.64,161.769 3879.48,208.935 3901.5,256C 3855.16,256.833 3808.83,256.667 3762.5,255.5C 3785.78,206.599 3808.78,157.599 3831.5,108.5 Z"/></g>
</svg>
